<?xml version='1.0' encoding='UTF-8'?>
<svg xmlns="http://www.w3.org/2000/svg" xmlns:xlink="http://www.w3.org/1999/xlink" version="1.1" id="Layer_1" x="0px" y="0px" width="100%" viewBox="0 0 1024 1024" enable-background="new 0 0 1024 1024" xml:space="preserve">
<rect x="0" y="0" width="1024" height="1024" fill="#d3d3d3"/><path fill="#000000" opacity="1.000000" stroke="none" d=" M370.650024,114.493805   C398.476898,103.906906 426.926361,97.579170 455.980743,93.527321   C476.293976,90.694489 496.659790,89.212624 517.143250,89.685448   C573.826111,90.993828 628.194946,102.818916 680.224548,125.507751   C739.033447,151.152893 789.735413,187.855240 832.391663,235.772522   C835.661560,239.445724 835.304871,241.126144 831.596130,244.226440   C803.473450,267.734802 774.925720,290.702972 745.879089,313.057983   C714.991272,336.829987 684.560974,361.203003 652.777344,383.795105   C651.706604,384.556244 650.532288,385.171539 649.127808,386.023712   C645.625732,382.009308 645.775452,376.983246 645.087952,372.430786   C643.923889,364.721802 643.270691,356.917419 642.787415,349.129303   C642.358459,342.216370 644.850464,339.807922 651.858826,339.667206   C658.729309,339.529236 665.500610,338.957916 671.594543,335.378296   C673.544922,334.232605 675.806641,333.234955 676.128906,330.297272   C672.217102,328.213654 667.744446,328.629730 663.662354,327.436554   C661.724487,326.870117 659.804199,326.350037 658.211731,325.084961   C654.661865,322.264923 654.822998,318.563019 658.608643,316.110931   C659.580139,315.481628 660.634460,314.868103 661.737793,314.571625   C673.000610,311.545105 681.177124,304.005646 689.105164,296.057648   C691.198425,293.959106 692.670288,291.614197 692.613464,288.604156   C692.513123,283.287140 695.327515,280.205292 700.113525,278.715088   C709.267517,275.864838 717.719604,271.678528 725.318481,265.815186   C726.899780,264.595032 728.487000,263.366394 729.945557,262.006622   C733.241272,258.934357 733.895081,256.341614 730.967834,251.813950   C725.970154,244.083786 719.228638,238.841888 711.782532,234.011917   C708.746277,232.042435 706.071228,229.516083 702.276855,226.478607   C702.963257,233.024979 704.536072,238.384521 706.765930,243.515991   C707.486694,245.174652 709.712463,244.678040 711.343872,244.851730   C715.461670,245.290146 718.287354,247.422729 718.920532,251.571564   C719.568604,255.818039 717.155029,258.823120 714.009460,261.296509   C713.199402,261.933472 712.040222,262.501648 711.290466,261.638977   C708.648315,258.598785 705.709106,259.600800 702.615845,260.595673   C699.132263,261.716034 696.995483,259.684052 695.073853,257.140533   C692.901855,254.265747 690.983215,252.134003 686.399841,254.001328   C680.731812,256.310516 676.755859,253.579727 674.684387,247.270157   C672.392944,240.290848 672.364685,232.875183 670.781982,225.742752   C669.479187,219.871231 667.819641,214.177399 665.190063,208.738770   C659.942993,197.886520 666.691406,186.707855 678.584900,186.762756   C687.193359,186.802475 695.405396,188.671509 702.618958,193.783005   C707.330750,197.121750 712.492920,197.492630 717.849182,195.687332   C722.129211,194.244797 722.517761,192.507629 718.966003,189.528397   C712.168579,183.826736 704.459534,179.455322 696.696350,175.263977   C656.690979,153.664886 614.355164,138.725449 569.407776,131.561066   C539.365845,126.772537 509.091248,125.908707 478.828949,128.493408   C432.206696,132.475403 387.943939,144.890671 346.741821,167.451477   C340.746979,170.734039 334.951385,174.344315 329.549835,178.550400   C327.478882,180.162994 325.420898,181.809647 323.935760,184.159317   C326.535583,186.190323 328.703827,184.720795 330.760651,183.982758   C339.549988,180.829071 348.034119,176.978851 356.306152,172.634750   C360.896545,170.224075 365.679413,168.313049 371.061859,168.651703   C373.000885,168.773697 374.870239,169.081985 375.541870,171.113098   C376.158264,172.977081 374.768768,174.322144 373.485321,175.327225   C370.475708,177.684097 367.351654,179.899216 364.219666,182.094269   C360.686584,184.570450 357.278564,187.158005 354.647888,190.662628   C364.511688,198.138657 378.752747,195.578125 383.649353,185.180710   C391.025848,169.517502 403.064880,161.432281 420.126221,158.542770   C449.324463,153.597717 478.588867,151.970200 508.086426,153.569962   C515.546265,153.974533 522.996948,153.160477 530.491882,154.521179   C541.095398,156.446259 558.436035,173.712570 558.833679,184.763016   C559.075073,191.473648 557.856689,197.660645 553.757690,203.068130   C549.866760,208.201096 544.533997,209.509384 538.592529,207.859192   C534.860413,206.822678 532.598633,207.780685 530.841187,211.137360   C528.693481,215.239471 525.090454,218.118637 520.543091,218.100830   C513.049683,218.071533 509.606689,222.899994 506.464233,228.333054   C504.971222,230.914276 503.961975,233.772736 502.693268,236.486740   C498.882263,244.639191 495.196869,246.631882 486.459869,245.302826   C472.326721,243.152939 462.017700,227.272278 465.950378,213.688538   C467.197815,209.379837 468.668701,205.135147 469.128998,200.626999   C469.936218,192.720642 467.405640,185.896255 462.530975,179.811127   C461.565887,178.606369 460.274567,177.725464 458.771179,177.490204   C448.329376,175.856110 437.888245,175.382462 427.606567,178.434067   C421.312012,180.302277 420.234619,183.355881 424.048309,188.723495   C428.286591,194.688797 433.654114,199.793808 437.300995,206.236465   C441.782959,214.154343 440.808777,218.992783 432.805328,223.605209   C427.914154,226.424042 422.799347,228.715424 418.655396,232.764496   C416.198761,235.164871 413.079437,234.650986 410.393799,232.673294   C406.031525,229.460892 401.562469,226.862228 395.784607,227.162033   C394.178162,227.245392 392.321289,226.014755 390.877686,224.973343   C388.102692,222.971481 388.410004,220.827850 391.285248,219.131882   C393.573792,217.781998 396.056091,216.746201 398.280579,215.305710   C401.363770,213.309174 401.930176,211.122070 399.096466,208.037277   C391.835022,200.132431 391.498383,199.686234 384.944794,208.319656   C377.887238,217.616974 369.247345,223.044281 357.628571,224.782074   C348.815277,226.100281 340.814575,230.109589 334.315216,236.500870   C326.805542,243.885651 327.704742,250.626175 336.798737,255.922745   C341.603821,258.721344 343.881195,267.342316 341.790497,275.002258   C341.008911,277.865967 339.656647,280.612885 340.102570,283.693695   C343.687988,284.862152 350.170929,282.494171 351.813568,279.568848   C352.846100,277.730011 351.645386,276.781647 350.535004,275.777466   C347.668213,273.184723 348.554077,270.801056 350.946289,268.559021   C353.408875,266.251038 356.315674,264.629028 359.444489,263.407440   C366.900452,260.496460 371.107605,255.073105 372.763733,247.241531   C374.836151,237.441422 382.388306,231.561096 391.859863,231.627563   C394.979401,231.649445 396.650269,232.634872 396.201813,236.001114   C395.194092,243.565247 400.794098,247.775208 404.978210,252.506332   C407.178436,254.994232 409.053436,252.877670 410.398804,250.656158   C411.626343,248.629211 411.819763,244.808578 415.825714,246.933868   C422.054535,250.238434 422.728729,251.591171 420.491730,256.407043   C419.749451,258.004944 419.642761,259.322998 421.043243,260.402802   C424.230743,262.860474 425.555176,266.495239 427.327209,269.877014   C429.698151,274.401733 431.769592,279.055206 437.075317,281.311157   C439.753326,282.449799 440.895264,285.522766 441.214630,288.392395   C441.866547,294.249359 443.443329,299.763275 446.017700,305.069458   C447.090607,307.280914 447.838531,309.757080 448.184021,312.190979   C448.804260,316.560608 446.224457,318.757141 441.894257,317.678040   C436.574036,316.352264 431.347931,314.677979 425.722076,315.294586   C423.094055,315.582581 421.309418,314.131714 420.326721,311.709290   C419.339569,309.275848 420.595245,307.519257 422.176422,305.937256   C422.994415,305.118866 423.946594,304.409607 424.919617,303.776154   C427.304016,302.223877 428.458008,300.084442 427.396698,297.389526   C426.160675,294.250946 423.201324,294.729584 420.936737,295.465759   C413.625824,297.842407 406.331787,299.457428 398.522156,299.646851   C391.845551,299.808746 390.344391,303.847504 393.209045,309.988373   C395.941467,315.845673 399.795380,319.463318 406.745667,318.743195   C408.132050,318.599548 409.673950,319.236755 411.037384,319.781219   C412.592224,320.402130 414.194519,321.322296 414.067291,323.309326   C413.963776,324.926453 412.756683,325.976227 411.300323,326.578430   C405.000854,329.183472 398.700775,331.788086 392.371338,334.318939   C388.560150,335.842834 384.932129,335.115387 381.283142,333.431946   C372.350891,329.311005 362.092773,332.009125 356.810760,340.588257   C352.826355,347.059845 348.011597,351.794922 341.044891,355.154724   C332.843933,359.109741 326.269440,365.056091 323.431671,374.517792   C321.364105,381.411377 316.376129,386.027740 310.026581,389.910980   C300.519897,395.725128 293.555786,403.782593 294.204742,416.174774   C294.500671,421.825623 294.645020,427.537872 294.141113,433.157928   C293.819397,436.745789 293.583771,441.653351 288.719482,442.098358   C284.086578,442.522217 283.384674,437.871674 282.061676,434.574615   C280.938568,431.775787 280.750793,428.797821 280.594208,425.772949   C280.077362,415.790894 272.888367,409.293823 262.914337,409.240753   C259.213165,409.221069 257.444519,410.450134 257.267548,414.386230   C257.036041,419.534943 255.845352,419.980713 251.631439,417.113159   C250.942657,416.644470 250.265808,416.158234 249.575760,415.691437   C239.605133,408.946716 228.449524,413.162262 225.198715,425.118866   C222.047760,436.708130 221.268356,448.662872 220.380280,460.580017   C220.282761,461.888580 220.412537,463.258698 220.694427,464.543762   C222.664047,473.522614 225.715134,474.607239 232.825027,468.981445   C235.820053,466.611603 238.326324,463.652924 241.813553,461.865662   C245.282516,460.087708 247.925476,460.740936 249.763580,464.159058   C251.498505,467.385315 253.165207,470.499176 256.628815,472.425873   C259.311981,473.918427 258.417084,476.462494 257.132843,478.555817   C255.896133,480.571625 253.866287,481.831451 252.047180,483.294617   C249.757202,485.136597 246.916946,486.508789 245.952133,489.686432   C247.199417,491.829987 249.303802,491.572327 251.254578,491.663513   C262.888611,492.207489 268.105133,498.685486 266.088074,510.125214   C265.944092,510.941833 265.600677,511.725800 265.482330,512.544067   C264.011810,522.712646 266.501526,526.652710 276.446014,529.237793   C280.828461,530.377075 285.133301,531.554260 288.850250,534.235901   C291.140839,535.888428 293.187500,535.650757 295.051117,533.628418   C301.023407,527.147644 307.747772,521.896118 316.617371,519.954346   C318.121765,519.625000 318.898773,518.231262 319.818054,516.991333   C322.437225,513.458679 327.004944,513.602539 327.945984,517.677612   C330.615967,529.239746 338.501526,531.181152 348.637238,530.920959   C353.049866,530.807678 357.554321,531.734131 362.051849,531.710938   C362.546967,531.708374 363.113770,531.691284 363.527588,531.908813   C371.539215,536.119324 379.403381,540.546997 385.859100,546.842896   C384.127106,550.301086 381.570953,551.858948 378.922821,553.288452   C348.419159,569.755310 317.058990,584.471985 285.561157,598.903564   C283.642426,599.782654 281.715912,600.963379 279.419525,600.522644   C278.172272,595.230103 287.461945,577.745667 298.180573,565.175049   C296.667725,561.525391 295.440887,557.697510 293.559052,554.224426   C290.544678,548.661255 285.319580,545.862732 279.243988,545.504639   C271.614502,545.054932 266.107880,541.170715 261.336151,535.861450   C254.743301,528.525879 249.651443,520.075562 244.162766,511.931244   C241.947723,508.644501 239.212982,506.273254 235.508957,504.719604   C230.529053,502.630707 225.973816,499.826263 223.930679,494.363312   C222.594513,490.790649 219.352951,489.952820 216.269516,489.646515   C201.937134,488.222748 194.252457,479.713593 191.231674,466.372559   C189.588501,459.115570 187.906555,451.871704 189.455872,444.194977   C190.485306,439.094208 188.576736,434.149750 186.410767,429.565552   C184.669861,429.777557 184.636276,430.886414 184.242172,431.760620   C182.498474,435.628784 179.999329,435.052643 177.637863,432.560242   C174.615036,429.369720 173.977722,425.209015 173.661942,421.008667   C173.171860,414.489807 174.158844,408.048584 174.803329,401.601990   C175.975403,389.878357 177.429321,378.182953 178.607864,366.459900   C180.731735,345.333740 186.647446,325.403503 197.172684,306.918243   C200.963531,300.260468 204.907562,293.688324 208.872055,287.131744   C210.281097,284.801453 210.999680,282.345398 211.420883,278.851746   C206.682037,282.983948 203.872086,287.675415 200.733871,292.030762   C170.132004,334.501190 149.738266,381.509918 138.788849,432.628052   C131.635986,466.021667 129.648651,499.928284 131.596237,533.882202   C133.671127,570.055359 140.928482,605.330505 155.069275,638.936218   C156.011475,641.175415 157.153641,643.558960 153.378647,644.200134   C138.417114,646.741394 123.500511,648.987610 108.620804,643.409851   C96.840401,638.993896 90.880127,630.589417 90.575569,618.091370   C90.384293,610.242004 91.188911,602.574341 95.384293,595.980469   C100.658417,587.691101 98.190163,579.075989 97.270226,570.688965   C95.566193,555.153503 93.530006,539.677795 93.625069,524.002991   C93.728065,507.020172 93.099182,490.009552 94.770264,473.079437   C98.625122,434.024750 107.433800,396.170807 121.646950,359.498505   C146.883987,294.382904 185.414215,238.634521 238.128311,192.853790   C277.380615,158.764252 321.590576,132.861847 370.650024,114.493805  z"/>
<path fill="#000000" opacity="1.000000" stroke="none" d=" M880.541870,212.318054   C902.922913,220.060944 924.959717,227.599579 946.955261,235.256882   C955.094299,238.090317 956.625305,241.092728 954.365845,249.223465   C940.749939,298.221375 927.101746,347.210327 913.474243,396.205017   C912.988831,397.950195 912.755554,399.788025 911.204773,401.361938   C906.698914,399.884949 905.382019,394.732117 901.494568,392.649292   C899.818054,392.572052 899.117371,393.809265 898.385742,394.879211   C887.461426,410.853699 873.406250,423.882599 858.927307,436.452850   C809.667480,479.218964 756.475830,516.813599 703.294006,554.412781   C666.164551,580.662964 628.855713,606.644104 590.609741,631.265930   C538.735901,664.661011 484.928497,694.603760 429.904144,722.446167   C391.865021,741.694031 353.834137,760.938416 314.562378,777.595093   C286.346436,789.562744 257.640900,799.889832 227.454666,805.994995   C204.471100,810.643433 183.062180,808.728577 163.839325,794.367371   C154.257797,787.208984 147.071228,777.718140 140.246170,768.041321   C115.575478,733.062195 97.406334,694.844177 84.058578,654.266479   C83.516541,652.618713 82.548874,650.913086 83.110138,648.981812   C84.708374,648.119385 85.638535,649.452637 86.628326,650.095886   C101.959763,660.060852 118.713364,662.904053 136.717606,660.958008   C184.406677,655.803284 228.899063,639.677429 272.672852,621.323730   C347.801147,589.823486 418.970978,550.633301 489.003571,509.230896   C569.709106,461.518829 646.779907,408.470184 721.097595,351.419281   C762.717651,319.469086 803.735168,286.729431 844.814087,254.081177   C858.939453,242.854813 861.662292,238.647095 852.747192,217.870255   C850.737061,213.185532 848.154907,208.746307 845.759277,204.043320   C848.380920,202.070984 850.733032,202.594086 853.132385,203.376328   C862.145325,206.314651 871.164490,209.234268 880.541870,212.318054  M525.689880,624.165100   C531.991455,616.325012 533.496155,607.671936 529.267273,598.510315   C524.854065,588.949402 517.458740,583.930115 505.841858,585.793457   C507.733551,580.559265 510.840271,576.123413 509.482666,570.966675   C505.899750,557.357544 497.236298,547.967041 480.674469,553.812439   C467.555481,558.442688 456.316437,566.750122 444.250122,573.437561   C441.333344,575.054077 442.303589,577.325378 443.567566,579.420166   C456.649811,601.101990 468.726746,623.353088 480.959045,645.514587   C482.772980,648.800903 484.797211,649.021301 487.859833,647.409851   C494.341766,643.999207 500.987396,640.898560 507.454590,637.461304   C513.934631,634.017334 520.232788,630.253967 525.689880,624.165100  M244.016586,755.540466   C250.561539,758.726624 257.352234,759.285828 264.427094,757.673645   C280.165649,754.087341 293.941193,747.448669 303.259430,733.512695   C305.372864,730.351990 306.077698,727.492859 304.328094,723.803162   C300.478241,715.684265 296.959747,707.405090 293.443909,699.132751   C292.198151,696.201477 290.640289,695.533936 287.674927,696.922668   C280.288971,700.381714 272.808716,703.643799 265.320740,706.879395   C258.934570,709.638794 258.906494,709.573792 261.519012,715.701721   C264.162109,721.901367 264.164795,721.908203 270.519348,719.387390   C271.912231,718.834778 273.231873,718.029663 274.667694,717.668762   C276.904114,717.106628 279.535187,714.182556 281.385406,716.919861   C283.690430,720.329895 287.301819,724.059814 285.559509,728.588196   C280.461884,741.837219 258.294159,749.423828 247.096207,737.414612   C238.028275,727.689697 232.495255,716.577332 232.597198,702.908997   C232.665497,693.754761 236.880447,687.902466 245.121399,684.422791   C253.669281,680.813477 261.837982,679.594055 268.979858,687.256592   C270.178070,688.542175 271.340942,689.846191 273.202026,688.619751   C276.912079,686.174866 281.256622,684.690369 284.739655,681.193359   C279.917633,672.869690 272.959717,668.118225 263.500610,667.356934   C250.963715,666.347961 239.864578,670.491394 229.840027,677.660034   C222.823074,682.677917 218.063461,689.467468 216.357391,698.011353   C212.069061,719.487244 223.933319,744.468994 244.016586,755.540466  M378.712616,609.217224   C370.616089,617.172668 366.768005,626.664124 368.261200,638.092346   C369.880432,650.485474 375.176086,661.294861 382.858063,670.942688   C394.008759,684.947021 410.051178,689.287964 426.640442,682.635620   C441.037262,676.862549 452.537689,668.117798 455.206665,651.502502   C456.801910,641.571472 454.147644,632.352417 449.753601,623.602539   C443.246552,610.645081 434.152527,600.126892 419.501678,596.559143   C403.946167,592.771057 390.811707,598.567810 378.712616,609.217224  M795.745972,353.477448   C796.651672,351.902283 797.352722,350.156952 798.497070,348.780090   C804.947693,341.019135 811.014587,339.479797 820.660706,343.078278   C821.720947,343.473785 822.649658,343.570862 823.441101,342.850952   C827.455200,339.199829 832.213623,336.338776 835.771545,331.585114   C830.852295,326.771667 824.962097,323.622314 818.660828,324.635834   C802.059998,327.306061 788.581177,335.706299 780.671875,350.853485   C772.803894,365.921387 784.062012,383.005920 801.110229,382.958618   C806.015686,382.945007 810.629822,381.650513 815.237061,380.184692   C822.205688,377.967651 828.829590,374.708771 836.024780,373.193024   C843.491089,371.620117 850.932373,376.806122 849.900269,383.288940   C848.689087,390.896393 842.988586,395.095490 836.501587,398.314819   C831.275757,400.908203 826.545044,400.371918 822.405518,396.097748   C820.956726,394.601776 819.446533,394.060883 817.600281,395.501770   C813.562622,398.652893 809.487793,401.756317 805.506714,404.818726   C808.867981,411.505096 815.786194,415.389618 824.223083,415.636658   C839.773682,416.092010 862.884583,398.193970 866.462158,382.983551   C869.291687,370.953461 859.655884,352.252686 843.633118,354.139526   C839.143127,354.668274 834.751831,355.325195 830.473694,356.671997   C823.023743,359.017365 815.687439,361.754578 808.168579,363.841461   C800.277710,366.031647 795.102417,361.847137 795.745972,353.477448  M782.265625,437.396759   C775.296753,449.922058 764.344116,452.501892 752.812439,443.927338   C748.164612,447.284576 743.393005,450.731201 738.371887,454.358063   C742.803528,460.797821 748.309021,464.056335 755.327698,464.705231   C770.338257,466.093018 781.697327,458.417297 791.590271,448.740479   C804.204163,436.402069 803.376099,425.396423 791.415771,411.523590   C786.886169,406.269714 780.736145,404.718262 773.732361,405.620575   C764.082581,406.863678 755.032166,410.199799 745.786865,412.870361   C742.569641,413.799713 739.383850,414.700012 735.987732,414.321625   C729.852783,413.638092 727.074219,408.781097 729.662842,403.157532   C731.971619,398.141968 736.433044,395.477966 741.086243,393.169220   C745.369629,391.043976 749.702698,390.644592 753.710388,393.966949   C754.642273,394.739471 755.673584,395.566864 756.830933,394.752106   C761.246399,391.643677 765.898804,388.802521 769.595825,384.872192   C765.657593,379.583344 761.047424,376.876495 755.552307,376.371338   C737.518188,374.713623 716.237549,389.663361 711.860657,407.064758   C708.979858,418.517853 718.407227,431.711609 730.118469,432.795593   C735.871460,433.328064 741.368958,432.461426 746.827637,430.724640   C754.115662,428.405792 761.375366,425.926270 768.790955,424.098877   C777.071167,422.058380 784.149719,428.795532 782.265625,437.396759  M336.731506,706.793762   C333.720947,700.927429 330.710388,695.061035 327.528107,688.860046   C329.876892,687.640625 331.605896,686.692261 333.377502,685.831726   C341.913879,681.685120 350.475464,677.590149 358.993805,673.406982   C360.678955,672.579529 363.191284,671.960571 361.765961,669.152771   C360.204681,666.077087 359.352905,662.614258 356.767578,659.673218   C346.412933,664.625183 335.978943,669.365662 325.806458,674.613037   C322.160004,676.493958 320.493408,675.829590 318.976898,672.345581   C317.517212,668.992126 315.794159,665.742554 314.019531,662.540039   C312.301727,659.440063 312.684998,657.610901 316.228149,656.010132   C325.480927,651.829834 334.454895,647.027893 343.738007,642.921326   C348.012421,641.030396 348.882935,638.835632 346.474335,635.021057   C345.945770,634.183960 345.583954,633.232971 345.210022,632.308289   C343.831573,628.900024 342.075897,627.999329 338.361053,629.892273   C324.123352,637.147278 309.694214,644.026428 295.337280,651.047485   C289.471924,653.915894 289.460602,653.924011 292.515533,659.940857   C303.745667,682.059021 315.039520,704.145081 326.151398,726.322510   C327.553955,729.121765 328.893646,729.489990 331.548431,728.243591   C342.698120,723.009033 353.907440,717.901306 365.102814,712.764343   C370.661957,710.213501 376.381378,707.971558 381.840424,704.316711   C380.721161,701.955627 379.753876,699.871460 378.749756,697.805115   C375.813263,691.762085 375.764618,691.675781 369.569519,694.655945   C360.569885,698.985168 351.657715,703.496094 342.664215,707.838257   C340.861664,708.708496 338.762787,710.443909 336.731506,706.793762  M723.997070,466.546417   C710.668030,457.158569 697.394226,447.690826 683.978149,438.429016   C679.653809,435.443634 675.744507,429.677490 670.790283,430.346710   C666.048889,430.987183 661.911194,435.816559 657.416992,438.660828   C654.154480,440.725586 653.288757,442.941986 654.695740,446.908203   C663.360657,471.334015 670.478394,496.211670 675.717407,521.617065   C676.114624,523.543274 675.740051,526.104431 678.110962,527.294250   C691.696594,521.935181 693.218933,519.042480 689.460876,505.778259   C689.143677,504.659058 688.866943,503.511597 688.394653,502.456390   C687.126709,499.623505 688.217529,497.742889 690.579529,496.137848   C697.324402,491.554535 704.049744,486.941132 710.720581,482.251221   C712.979858,480.662811 714.896484,480.658630 716.934998,482.584961   C719.837097,485.327454 722.853027,487.949127 725.798645,490.646088   C727.070984,491.810944 728.288391,492.947205 730.128540,491.628448   C734.552734,488.457855 738.993042,485.309937 744.211548,481.594147   C737.278320,476.425537 730.930664,471.693451 723.997070,466.546417  M638.851318,516.356018   C643.630005,512.354187 647.845520,507.960968 649.657898,501.739258   C652.875610,490.693451 647.764587,482.292297 640.881104,474.618713   C633.800232,466.725037 626.106079,464.976105 616.583862,469.358124   C603.225403,475.505554 591.243347,483.968384 579.359741,492.538391   C579.144348,492.693695 579.138123,493.139069 578.938660,493.734619   C583.176819,501.265747 588.489746,508.306763 593.433960,515.594482   C603.156799,529.925720 612.728210,544.359558 622.412109,558.717346   C623.615662,560.501770 624.500732,563.495178 627.641724,561.575623   C631.979309,558.924866 636.183472,556.055847 640.878784,552.997681   C634.916138,544.098633 629.409241,535.879883 623.731018,527.405334   C628.897278,523.635254 633.591003,520.210022 638.851318,516.356018  M507.674530,536.881287   C503.342712,540.725037 508.447510,541.333252 509.924500,542.197205   C522.132507,549.337830 534.401428,556.393127 546.887573,563.031067   C552.435791,565.980591 556.351990,570.032959 559.330444,575.417236   C562.711853,581.529907 566.522827,587.404053 569.949646,593.492920   C571.451660,596.161743 572.934998,596.607422 575.460693,594.828186   C578.312683,592.819031 581.279785,590.929016 584.364990,589.306885   C587.783386,587.509521 587.768677,585.502502 585.769226,582.545837   C581.389465,576.069519 577.251221,569.430359 572.985046,562.876709   C571.703491,560.908020 570.780273,558.948181 570.603088,556.464355   C569.547852,541.671082 569.620544,526.861755 569.632263,512.049255   C569.635498,507.959412 569.335815,503.887512 568.066101,499.749756   C562.860413,501.342590 559.045898,504.709900 554.637451,506.945496   C551.753662,508.407959 551.061523,510.635132 551.373230,513.522766   C551.924927,518.633118 552.803162,523.735168 552.938538,528.856689   C553.111450,535.398621 554.884827,541.897583 554.081299,548.405884   C551.622375,548.924683 550.511841,547.471191 549.179382,546.577271   C543.927551,543.053650 538.716492,539.468994 533.449463,535.968506   C520.811829,527.569824 520.802551,527.583801 507.674530,536.881287  z"/>
<path fill="#000000" opacity="1.000000" stroke="none" d=" M847.634766,554.946289   C874.645386,562.630249 891.331360,584.675049 891.348450,612.286804   C891.353088,619.745605 891.349121,627.204407 891.349121,635.140015   C885.401489,635.140015 879.911133,635.621094 874.543701,635.014282   C868.293762,634.307678 864.674255,629.584229 864.691284,623.206238   C864.717102,613.536011 864.857300,604.006042 859.717529,595.113525   C854.601318,586.261780 846.761902,582.210266 837.226013,581.484497   C815.580139,579.837036 800.987366,592.725830 799.219299,614.483154   C798.205933,626.954163 799.544189,639.423767 799.281067,651.893250   C799.192383,656.095276 802.044128,655.664917 804.732849,655.664978   C833.725403,655.665894 862.717957,655.671875 891.710510,655.668274   C894.378601,655.667969 897.000244,655.742310 899.604614,656.568787   C906.937805,658.895691 912.282532,665.589355 912.299683,673.319458   C912.375427,707.477173 912.400391,741.635376 912.295410,775.792969   C912.264771,785.755737 904.334717,792.808655 892.992920,793.223083   C887.002258,793.442017 880.997498,793.279968 874.999084,793.280090   C841.341064,793.280823 807.677612,792.935242 774.027893,793.462585   C762.183044,793.648193 750.015076,784.273560 750.404114,769.719238   C751.231995,738.749268 750.648254,707.741943 750.665344,676.749878   C750.672485,663.822266 756.303223,657.214478 769.019165,655.752136   C772.754517,655.322571 772.672302,653.167603 772.671082,650.570679   C772.665039,638.073914 772.678101,625.577087 772.678955,613.080322   C772.681213,581.731018 794.024963,561.857544 817.075317,555.389404   C827.010620,552.601562 837.140564,553.026733 847.634766,554.946289  M841.703491,736.840393   C841.524963,733.583496 842.821472,730.985596 845.359314,729.031738   C850.817505,724.829529 852.981079,719.339417 852.735718,712.469727   C852.390686,702.812317 846.135376,694.560791 836.964844,692.416321   C826.143555,689.885803 815.940735,693.871826 812.089844,703.043579   C807.806030,713.246704 807.420532,721.306946 817.374939,728.761536   C820.144836,730.835815 821.442810,733.398682 821.374329,736.864868   C821.265869,742.359070 821.229004,747.860962 821.394775,753.352600   C821.574829,759.317139 825.722168,762.942444 831.917847,762.856995   C837.949890,762.773804 841.535706,759.329895 841.671204,753.258179   C841.786377,748.097412 841.699219,742.932129 841.703491,736.840393  z"/>
<path fill="#000000" opacity="1.000000" stroke="none" d=" M423.452271,918.764404   C377.303925,908.713989 335.208801,890.118591 295.782654,865.141907   C275.595917,852.353577 256.816925,837.763428 239.330978,821.492676   C238.359863,820.589050 237.438751,819.628296 236.543808,818.648865   C236.352524,818.439575 236.376343,818.033691 236.268127,817.580505   C238.123581,815.647827 240.756088,815.963074 243.078445,815.344116   C253.032272,812.691467 263.085419,810.333252 272.866028,807.143066   C277.438690,805.651550 280.437775,806.271118 284.043091,809.335205   C318.630951,838.731262 357.864197,859.889038 400.883087,874.029724   C429.110748,883.308411 458.069611,888.585144 487.863953,889.874634   C567.089172,893.303406 639.032410,871.791992 704.649902,827.879211   C717.546143,819.248779 729.854065,809.849854 741.496948,799.605164   C743.996704,797.405579 745.826782,796.848389 748.781433,798.884094   C758.389648,805.503967 769.397156,806.817688 780.724731,806.686523   C782.139587,806.670105 783.700684,806.050110 785.010742,807.189636   C785.324158,808.674622 784.118286,809.281067 783.349182,810.045776   C726.718079,866.352295 659.639893,903.295227 581.247498,919.523010   C544.966003,927.033447 508.399628,929.113342 471.563782,926.190125   C455.525879,924.917358 439.597626,922.363037 423.452271,918.764404  z"/>
<path fill="#000000" opacity="1.000000" stroke="none" d=" M807.261230,543.339844   C799.649048,546.095276 792.807251,549.457642 786.852295,554.439575   C785.534241,555.542297 784.296204,556.414917 782.431580,555.168823   C777.514709,551.882812 771.841309,551.585632 766.167786,551.354553   C757.591614,551.005249 749.028687,550.545532 739.650757,546.914551   C796.502930,506.124878 851.208618,464.272278 903.125610,417.185516   C917.214966,473.691742 915.482605,529.127625 902.636108,585.638489   C881.708496,545.660889 850.263306,531.642151 807.261230,543.339844  z"/>
<path fill="#000000" opacity="1.000000" stroke="none" d=" M439.329407,797.362793   C437.825714,800.521240 437.851654,803.186157 440.055939,805.586609   C442.819061,808.595520 441.194275,810.308411 438.255341,811.526123   C436.571320,812.223816 434.827759,812.815369 433.063965,813.273499   C430.972015,813.816895 429.130707,814.307129 429.998596,817.201660   C430.586090,819.161011 429.224060,820.356140 427.766815,821.237854   C426.210663,822.179382 424.534454,822.926880 422.891846,823.720154   C421.277496,824.499695 419.047272,824.752258 418.723511,826.860535   C418.379425,829.101135 420.645081,829.690491 422.022186,830.797119   C423.525055,832.004761 425.677673,832.516479 426.349548,834.796448   C424.705780,837.748779 420.610382,837.323547 418.704742,840.330627   C419.640686,842.944519 422.347931,843.426270 424.404144,844.561829   C428.129517,846.619446 429.949799,849.084229 427.884308,853.456604   C426.170929,857.083435 424.497742,860.895203 430.459503,862.669128   C431.773590,863.060120 432.749786,864.773132 432.366333,866.419250   C431.938629,868.255310 430.249420,868.215759 428.742065,868.391296   C417.320679,869.721130 406.789368,866.170837 397.201813,860.885681   C391.771088,857.892151 388.208221,851.776123 383.078003,847.791565   C381.494476,846.561646 381.802155,844.458557 382.480865,842.651245   C383.994781,838.619873 383.252563,835.335022 380.763306,831.573120   C371.949432,818.252930 368.650085,802.997314 366.697540,787.414978   C366.161774,783.139160 365.574371,778.866150 365.584503,774.507690   C365.592499,771.051636 366.795593,769.081177 369.933868,767.537231   C396.226349,754.602173 422.512665,741.651184 448.669312,728.444458   C475.872131,714.709473 502.750977,700.355957 529.120178,685.065613   C530.791504,684.096497 532.383728,682.857056 535.262024,682.728394   C530.181274,697.412292 527.744019,712.424011 519.735901,725.489563   C516.855774,730.188538 512.136047,732.338074 507.243591,734.107178   C503.807861,735.349426 500.225891,736.184875 496.781891,737.406921   C484.816315,741.652588 477.196136,749.703857 475.408356,762.566101   C474.621033,768.230591 472.641541,773.067688 468.009125,776.738831   C465.235931,778.936646 463.748444,782.251465 461.869354,785.190552   C458.326996,790.730957 453.494171,793.949829 446.787903,794.503235   C444.268860,794.711060 441.377380,794.624451 439.329407,797.362793  z"/>
<path fill="#000000" opacity="1.000000" stroke="none" d=" M635.724731,265.133972   C639.690063,255.676376 646.420837,254.105881 653.820129,260.489838   C657.421509,263.597015 659.890320,267.535217 662.024414,271.685913   C664.841248,277.164612 668.501892,281.539032 674.443115,284.028320   C679.556396,286.170715 679.861633,289.623535 675.519104,293.034607   C670.817688,296.727570 666.044861,300.364014 660.490051,302.774475   C657.038696,304.272186 653.436157,305.694702 650.253235,302.671234   C647.115417,299.690582 646.694092,295.755737 647.556519,291.597870   C647.924561,289.823151 649.571777,287.953125 647.616150,286.086517   C644.556030,286.241241 644.601135,288.905701 643.707153,290.673920   C640.762939,296.497406 634.521729,297.009460 630.653015,291.684021   C627.711304,287.634644 627.610840,280.737793 630.980347,276.778473   C633.818970,273.443024 635.313599,269.782562 635.724731,265.133972  z"/>
<path fill="#000000" opacity="1.000000" stroke="none" d=" M305.785095,482.227539   C298.590546,484.429565 296.944916,484.008911 293.626251,478.035034   C291.000458,473.308350 287.077820,470.761169 282.079773,469.355164   C279.041138,468.500366 275.111206,467.534546 275.178040,463.970703   C275.247223,460.282532 279.635956,460.612000 282.269135,459.889008   C292.859161,456.981445 303.251251,461.685394 308.411041,470.943329   C310.979156,475.551117 310.470184,479.074829 305.785095,482.227539  z"/>
<path fill="#000000" opacity="1.000000" stroke="none" d=" M573.781250,215.566086   C580.173218,213.703995 585.766602,215.131241 591.009033,217.861664   C595.398743,220.147949 595.530029,224.605042 591.023376,226.589722   C582.583801,230.306335 573.633728,230.381409 564.749939,228.159454   C562.387939,227.568710 560.850281,225.579788 560.809631,222.952545   C560.768555,220.289001 562.413696,218.656296 564.688843,217.677567   C567.442444,216.493042 570.335632,215.774429 573.781250,215.566086  z"/>
<path fill="#000000" opacity="1.000000" stroke="none" d=" M335.268494,494.941223   C328.175323,496.120819 321.695740,494.324158 314.796844,494.010895   C314.787079,489.452484 316.167603,485.920929 319.770294,483.570007   C325.595459,479.768890 335.180237,480.871094 340.184387,485.762451   C344.284729,489.770386 344.059265,491.318787 338.971588,493.650635   C337.919312,494.132935 336.781677,494.429077 335.268494,494.941223  z"/>
<path fill="#000000" opacity="1.000000" stroke="none" d=" M488.541016,621.366760   C485.984741,616.740356 483.594269,612.440186 480.958649,607.699036   C486.839905,604.649353 492.161407,601.653870 497.684937,599.094482   C502.826599,596.711914 507.753510,598.236511 510.764832,602.619629   C514.313538,607.784973 514.310974,614.314636 510.571045,618.238464   C506.237854,622.784729 500.344543,624.931580 495.032867,627.960144   C493.679993,628.731445 492.470123,628.258484 491.678986,626.870117   C490.693787,625.141235 489.698029,623.418457 488.541016,621.366760  z"/>
<path fill="#000000" opacity="1.000000" stroke="none" d=" M474.999847,595.946655   C470.513855,591.524841 468.219696,585.947510 465.119324,580.879883   C464.149872,579.295288 464.529205,578.129761 466.231476,577.246826   C470.945343,574.801453 475.498444,572.008972 480.336975,569.851257   C485.575348,567.515442 489.315552,568.977966 492.122406,573.741638   C495.199432,578.963867 494.529083,584.081116 490.009491,587.479553   C485.487976,590.879456 480.412598,593.397888 474.999847,595.946655  z"/>
<path fill="#000000" opacity="1.000000" stroke="none" d=" M411.664185,670.060791   C405.180206,668.356079 400.468414,664.665649 396.841370,659.774963   C390.542328,651.281128 385.969391,642.272949 385.430939,631.137634   C384.782318,617.724243 401.204559,607.186340 413.790100,611.410278   C427.184753,615.905884 440.124847,637.205505 438.189453,651.199829   C436.469910,663.633179 426.298340,671.023926 411.664185,670.060791  z"/>
<path fill="#000000" opacity="1.000000" stroke="none" d=" M697.766907,474.928894   C693.111084,478.126953 688.735779,481.118561 683.594788,484.633698   C679.211121,472.417938 675.002136,460.688965 670.793091,448.959991   C671.163086,448.638672 671.533081,448.317322 671.903076,447.996002   C682.181763,455.221191 691.936951,463.128448 701.385437,470.989807   C700.797668,473.393494 699.052368,473.673981 697.766907,474.928894  z"/>
<path fill="#000000" opacity="1.000000" stroke="none" d=" M614.129761,514.034302   C610.375366,508.495453 606.980286,503.159058 603.303284,498.024658   C601.372314,495.328339 601.667175,493.747803 604.585754,492.146545   C608.368530,490.071075 611.860107,487.460724 615.659607,485.420685   C621.034912,482.534607 624.538879,483.106628 628.278503,486.993195   C632.653625,491.540253 634.462646,498.235413 631.809204,502.420319   C628.152710,508.187317 622.184509,511.441254 616.589417,515.005310   C615.831848,515.487915 614.993896,514.946472 614.129761,514.034302  z"/>
</svg>
